<svg xmlns="http://www.w3.org/2000/svg" width="24" height="23" viewBox="0 0 24 23">
    <path fill="none" fill-rule="evenodd" stroke="#231F20" stroke-width="1.5" d="M11.95 3.87c.492-.534.938-1.113 1.477-1.587 1.941-1.71 5.053-1.702 7.045-.03 1.444 1.212 2.172 2.796 2.434 4.615.389 2.708-.448 5.07-2.092 7.204-1.626 2.113-3.556 3.923-5.616 5.603-.925.754-1.894 1.455-2.84 2.184-.242.185-.466.189-.715.006-3.112-2.264-6.065-4.7-8.433-7.761-1.033-1.335-1.845-2.785-2.09-4.482-.37-2.564.07-4.929 1.891-6.896.914-.985 2.077-1.529 3.42-1.675 2.359-.257 4.095.75 5.39 2.641.04.056.077.113.117.167.014.018.035.03.013.012z"/>
</svg>
